<?xml version="1.0" standalone="no"?><!DOCTYPE svg PUBLIC "-//W3C//DTD SVG 1.1//EN" "http://www.w3.org/Graphics/SVG/1.1/DTD/svg11.dtd"><svg class="icon" width="30px" height="30.00px" viewBox="0 0 1024 1024" version="1.1" fill="#fff" xmlns="http://www.w3.org/2000/svg"><path d="M931.2 227.2 396.8 227.2c-19.2 0-35.2-19.2-35.2-41.6 0-22.4 16-41.6 35.2-41.6l534.4 0c19.2 0 35.2 19.2 35.2 41.6C966.4 208 950.4 227.2 931.2 227.2L931.2 227.2 931.2 227.2zM931.2 534.4 396.8 534.4c-19.2 0-35.2-19.2-35.2-41.6 0-22.4 16-41.6 35.2-41.6l534.4 0c19.2 0 35.2 19.2 35.2 41.6C966.4 515.2 950.4 534.4 931.2 534.4L931.2 534.4 931.2 534.4zM931.2 859.2 396.8 859.2c-19.2 0-35.2-19.2-35.2-41.6 0-22.4 16-41.6 35.2-41.6l534.4 0c19.2 0 35.2 19.2 35.2 41.6C966.4 841.6 950.4 859.2 931.2 859.2L931.2 859.2 931.2 859.2zM171.2 896c-44.8 0-80-35.2-80-80 0-44.8 35.2-80 80-80 44.8 0 80 35.2 80 80C251.2 860.8 216 896 171.2 896L171.2 896 171.2 896zM171.2 576c-44.8 0-80-35.2-80-80 0-44.8 35.2-80 80-80 44.8 0 80 35.2 80 80C251.2 539.2 216 576 171.2 576L171.2 576 171.2 576zM171.2 254.4c-44.8 0-80-35.2-80-80 0-44.8 35.2-80 80-80 44.8 0 80 35.2 80 80C251.2 219.2 216 254.4 171.2 254.4L171.2 254.4 171.2 254.4zM404.8 776" /></svg>